<?xml version="1.0" encoding="UTF-8"?>
<svg version="1.1" xmlns="http://www.w3.org/2000/svg" width="512" height="512">
<path d="M0 0 C168.96 0 337.92 0 512 0 C512 168.96 512 337.92 512 512 C343.04 512 174.08 512 0 512 C0 343.04 0 174.08 0 0 Z " fill="#FDFDFD" transform="translate(0,0)"/>
<path d="M0 0 C1.44291934 -0.00457177 2.88583652 -0.00988027 4.32875061 -0.0158844 C7.34026992 -0.02477469 10.35152346 -0.02243938 13.36303711 -0.01245117 C17.19709149 -0.00096558 21.03022422 -0.0211865 24.86415768 -0.05036831 C27.84043577 -0.06883047 30.81649701 -0.06841814 33.79281807 -0.06273079 C35.20522924 -0.0625788 36.61765628 -0.06852053 38.03001213 -0.08102226 C47.12004263 -0.15016855 55.99179582 -0.00273449 63.13731384 6.2827301 C68.73259065 12.08479883 71.36697543 18.82829446 73.41015625 26.49609375 C75.04660598 32.12303053 77.57552075 37.26716053 82.67967224 40.46339417 C87.765876 43.19744642 91.82215074 44.03862251 97.55859375 44 C98.3448111 44.00619858 99.13102844 44.01239716 99.94107056 44.01878357 C101.5931882 44.02584057 103.24537758 44.02278027 104.89746094 44.01000977 C107.39784456 43.99616194 109.89446357 44.03024859 112.39453125 44.06835938 C121.14462047 44.1118927 128.77975821 43.99211706 136.03515625 38.43359375 C138.28640234 36.30553178 138.28640234 36.30553178 139.53515625 33.93359375 C139.97859375 33.20140625 140.42203125 32.46921875 140.87890625 31.71484375 C142.81955147 27.88600319 144.13398987 24.36142722 144.78515625 20.12109375 C146.493251 12.21130112 151.7214006 7.28052284 158.0078125 2.5625 C162.25405593 0.19802148 166.83166051 0.29739851 171.59448242 0.2565918 C172.90321823 0.24375656 174.21195404 0.23092133 175.56034851 0.21769714 C176.98293678 0.20952713 178.40552938 0.2020839 179.828125 0.1953125 C180.55023981 0.19123697 181.27235462 0.18716145 182.0163517 0.18296242 C185.84040662 0.16214906 189.6644262 0.14782831 193.48852539 0.13842773 C197.41452658 0.12738712 201.33995732 0.09300144 205.26575756 0.05325603 C208.30547554 0.02696215 211.3450603 0.01872457 214.38488197 0.01514626 C215.83081212 0.01031136 217.27673758 -0.00121299 218.72255516 -0.01989174 C229.10177346 -0.14562505 238.56295563 0.72295982 246.72265625 7.80859375 C257.11998807 18.2385393 258.9251528 28.81620845 258.95053101 42.97779846 C258.93214285 45.13071275 258.91304597 47.28362108 258.89331055 49.43652344 C258.89789178 51.73761251 258.9054978 54.03869723 258.9158783 56.33976746 C258.93487711 62.55254472 258.91036427 68.76444326 258.87664008 74.97712994 C258.84762603 81.49469576 258.85539247 88.01223073 258.85810852 94.52984619 C258.85712049 105.46780117 258.82894612 116.40540904 258.78295898 127.34326172 C258.73574642 138.57739077 258.71453701 149.81118247 258.72143555 161.04541016 C258.72971677 174.61942035 258.7182258 188.19320369 258.68723488 201.76718903 C258.67555303 206.93919905 258.67098659 212.11114239 258.67203331 217.28316498 C258.67190718 223.37370378 258.65151232 229.46385518 258.61564064 235.55428505 C258.60558495 237.7850805 258.60223346 240.0159181 258.60618591 242.24673271 C258.6104129 245.29948483 258.5898979 248.35113009 258.5632782 251.40374756 C258.57359299 252.7172897 258.57359299 252.7172897 258.58411616 254.05736804 C258.44925058 263.17069333 255.35710132 271.00140505 249.1015625 277.67578125 C240.40178221 285.07635049 231.35526625 285.66484624 220.41040039 285.72875977 C219.04408378 285.74024142 217.67781068 285.76063291 216.31176758 285.7902832 C206.17314695 286.00996764 197.23026714 285.30523619 189.43790245 278.13669968 C182.26029756 269.42220705 181.17185636 260.32570271 181.32568359 249.42871094 C181.32405784 247.96210209 181.31973184 246.49549418 181.3129425 245.02890015 C181.30398908 241.89562063 181.31349141 238.76316268 181.33784103 235.62996674 C181.37596919 230.66990492 181.37002979 225.7104643 181.35830688 220.75030518 C181.34152902 211.12148016 181.36948593 201.49303722 181.40172577 191.86427307 C181.44031489 179.59391084 181.45628899 167.32361023 181.43652117 155.05320096 C181.43001102 150.12776114 181.44418708 145.20295269 181.47497153 140.2776103 C181.49037811 137.21141425 181.48938291 134.14537483 181.48422813 131.07915115 C181.48528535 129.66342795 181.49317645 128.24768986 181.50860405 126.83205032 C181.60341976 117.74326868 181.22236978 111.29889854 175.10546875 104.19140625 C174.46351563 103.65257812 173.8215625 103.11375 173.16015625 102.55859375 C172.52335938 102.00429687 171.8865625 101.45 171.23046875 100.87890625 C165.27044712 96.9550486 159.16903507 97.13685635 152.29150391 97.14306641 C151.22083176 97.13634918 150.15015961 97.12963196 149.04704285 97.12271118 C145.51438736 97.10374297 141.98192196 97.09980765 138.44921875 97.09765625 C135.98831098 97.09122792 133.52740397 97.08449953 131.0664978 97.07748413 C125.91019926 97.06551459 120.7539677 97.06180302 115.59765625 97.06298828 C108.99797436 97.06319154 102.39872275 97.03588022 95.79914284 97.00144386 C90.71699051 96.97918288 85.63494191 96.97515049 80.55274582 96.97620773 C78.11993297 96.97385093 75.68711731 96.96502302 73.25435257 96.949543 C69.84846276 96.92989859 66.44350316 96.93571569 63.03759766 96.94775391 C62.03785416 96.93651489 61.03811066 96.92527588 60.0080719 96.91369629 C52.69699856 96.97920157 47.37918103 98.55563515 41.79296875 103.36328125 C41.25414062 104.00523437 40.7153125 104.6471875 40.16015625 105.30859375 C39.60585937 105.94539063 39.0515625 106.5821875 38.48046875 107.23828125 C35.47151332 111.80864059 34.7850676 116.32562525 34.77687073 121.71321106 C34.77004272 122.95374741 34.76321472 124.19428375 34.75617981 125.47241211 C34.75859885 126.83422881 34.7611831 128.19604522 34.76391602 129.55786133 C34.7595254 131.00225619 34.75422202 132.44664852 34.74807739 133.89103699 C34.7366013 136.99466816 34.73111973 140.09823128 34.730196 143.20188332 C34.72825012 148.11542045 34.71016798 153.02881754 34.68943787 157.94230652 C34.64031803 170.14755404 34.60939296 182.35283954 34.58813477 194.5581665 C34.57158834 204.04349196 34.54870732 213.52869701 34.50511402 223.01394194 C34.48340456 227.89208637 34.47527355 232.77000172 34.47750676 237.64819109 C34.47583276 240.69151826 34.46173982 243.73469752 34.44429398 246.77797127 C34.43872375 248.18194751 34.43818206 249.5859548 34.44323158 250.98993301 C34.47847271 261.94240713 33.70507479 270.51638165 26.00390625 278.70703125 C17.7253031 285.96723481 8.45569566 285.66813362 -2.02734375 285.74609375 C-3.30029297 285.77509766 -4.57324219 285.80410156 -5.88476562 285.83398438 C-16.77049509 285.90666773 -26.1361018 284.20660715 -34.2421875 276.5 C-39.00470215 270.78714229 -42.08294049 263.81215751 -42.09627151 256.34331226 C-42.10203323 255.12746975 -42.10203323 255.12746975 -42.10791135 253.88706475 C-42.10704487 253.00215519 -42.10617838 252.11724563 -42.10528564 251.20552063 C-42.10825677 250.26106888 -42.11122789 249.31661712 -42.11428905 248.34354562 C-42.12297809 245.17083464 -42.12448448 241.99816139 -42.12597656 238.82543945 C-42.13060462 236.55376606 -42.13562926 234.28209346 -42.14102173 232.01042175 C-42.15414961 225.83256569 -42.16059154 219.65472049 -42.16503239 213.47685266 C-42.16796271 209.61733558 -42.17206746 205.75782147 -42.17653656 201.89830589 C-42.18864588 191.20695363 -42.19902757 180.51560499 -42.20241165 169.82424641 C-42.20263122 169.14016514 -42.20285078 168.45608387 -42.203077 167.75127287 C-42.20329528 167.06557647 -42.20351356 166.37988007 -42.20373845 165.67340499 C-42.20418191 164.28397898 -42.20462848 162.89455296 -42.20507812 161.50512695 C-42.20529955 160.81592713 -42.20552098 160.1267273 -42.20574912 159.41664263 C-42.20969507 148.25525562 -42.22714317 137.09393399 -42.25043765 125.93257222 C-42.27417504 114.4661597 -42.28635684 102.99979464 -42.28777957 91.53335446 C-42.28882763 85.09831707 -42.29473564 78.66337187 -42.31259918 72.22835732 C-42.32908049 66.17336395 -42.33123495 60.11853205 -42.32246017 54.06352425 C-42.32168982 51.8435803 -42.32603231 49.62362767 -42.33591843 47.4037056 C-42.34864327 44.36780708 -42.34275789 41.33247998 -42.33233643 38.29658508 C-42.34039283 37.42282913 -42.34844923 36.54907318 -42.35674977 35.64883977 C-42.27950103 25.99427166 -39.16999228 17.84191923 -32.96484375 10.43359375 C-23.14077196 0.88703811 -13.27509986 -0.0370986 0 0 Z " fill="#010000" transform="translate(146.96484375,102.56640625)"/>
<path d="M0 0 C0.92363846 -0.00902847 1.84727692 -0.01805695 2.79890442 -0.02735901 C4.75140149 -0.04184132 6.70394687 -0.05074322 8.65649414 -0.05444336 C11.61755105 -0.06629823 14.57649439 -0.11546794 17.53710938 -0.16601562 C37.35363857 -0.3370981 37.35363857 -0.3370981 45.3347168 7.12719727 C52.33362829 14.39121075 52.91603984 21.88206803 52.890625 31.55078125 C52.89586685 32.71811798 52.9011087 33.88545471 52.9065094 35.08816528 C52.91291612 37.55079353 52.91161017 40.01345243 52.90307617 42.47607422 C52.89457499 46.22679658 52.92333532 49.97599069 52.95507812 53.7265625 C52.95669062 56.12630163 52.95611168 58.52604344 52.953125 60.92578125 C52.96435898 62.03855438 52.97559296 63.15132751 52.98716736 64.29782104 C52.90583412 73.46939838 50.64072409 81.09750447 44.22802734 87.88012695 C36.00892559 94.79962715 25.27649847 93.98820508 15.16210938 93.89257812 C12.46262779 93.8711382 9.7658068 93.89244714 7.06640625 93.91796875 C-2.9120052 93.93525068 -11.72672277 93.87277357 -19.9453125 87.51171875 C-20.45191406 86.8878125 -20.95851562 86.26390625 -21.48046875 85.62109375 C-22.00511719 85.0075 -22.52976563 84.39390625 -23.0703125 83.76171875 C-27.59582017 76.41527128 -27.99934629 69.78125383 -27.9765625 61.34765625 C-27.98180435 60.20630219 -27.9870462 59.06494812 -27.9924469 57.88900757 C-27.99884729 55.48363048 -27.99755593 53.078222 -27.98901367 50.67285156 C-27.9805113 47.01440033 -28.00928349 43.35751579 -28.04101562 39.69921875 C-28.04262816 37.35286505 -28.0420491 35.00650861 -28.0390625 32.66015625 C-28.05029648 31.57755524 -28.06153046 30.49495422 -28.07310486 29.37954712 C-27.9994891 21.26126596 -26.6196938 14.11380043 -21.359375 7.71484375 C-20.61558594 7.10640625 -19.87179688 6.49796875 -19.10546875 5.87109375 C-17.99365234 4.9275 -17.99365234 4.9275 -16.859375 3.96484375 C-11.36835947 0.18687691 -6.47073755 0.03928097 0 0 Z " fill="#020202" transform="translate(242.54296875,294.62890625)"/>
<path d="M0 0 C0.66 0 1.32 0 2 0 C2.00634791 1.12037124 2.00634791 1.12037124 2.01282406 2.26337624 C2.11614975 20.44136466 2.2247904 38.61931422 2.33933926 56.79723549 C2.39460627 65.58795483 2.44807749 74.37867824 2.49731445 83.16943359 C2.54023625 90.8318663 2.58653428 98.49426991 2.63687855 106.15665758 C2.66341514 110.21343395 2.68826643 114.27020479 2.70907402 118.32701492 C2.72872007 122.14695917 2.75288721 125.96684838 2.78049088 129.78674316 C2.78981925 131.18713756 2.79750947 132.587544 2.80341911 133.987957 C2.81175224 135.90391198 2.82661682 137.8198352 2.84178162 139.73574829 C2.84823417 140.80687174 2.85468672 141.87799519 2.8613348 142.98157692 C3.00264793 146.05763938 3.43182749 148.97605647 4 152 C3.34 152 2.68 152 2 152 C0.19274981 148.12185079 -0.24779173 145.08205711 -0.24050903 140.81803894 C-0.24325836 139.57428497 -0.24600769 138.33053101 -0.24884033 137.04908752 C-0.24176301 135.67880152 -0.23449341 134.30851649 -0.22705078 132.93823242 C-0.22648638 131.48923755 -0.22680379 130.0402421 -0.22793579 128.59124756 C-0.22850918 124.66393268 -0.21675713 120.73674019 -0.20278788 116.80945373 C-0.19027822 112.70283489 -0.18910983 108.5962132 -0.18673706 104.48957825 C-0.18052299 96.71591291 -0.16411315 88.94230388 -0.14403808 81.16866332 C-0.12167683 72.31745405 -0.11068508 63.46624207 -0.10064721 54.61501157 C-0.07974686 36.4099758 -0.04457228 18.20499243 0 0 Z " fill="#2B2B2B" transform="translate(329,220)"/>
<path d="M0 0 C0.84460281 -0.00637985 1.68920563 -0.0127597 2.55940247 -0.01933289 C3.47396713 -0.02044571 4.3885318 -0.02155853 5.33081055 -0.02270508 C6.27055222 -0.02603348 7.21029388 -0.02936188 8.17851257 -0.03279114 C10.16994741 -0.03786024 12.16139075 -0.04019947 14.15283203 -0.04003906 C17.19472352 -0.04221998 20.23624916 -0.06036048 23.27807617 -0.0793457 C25.21231972 -0.08228076 27.146565 -0.0842648 29.08081055 -0.08520508 C29.98930252 -0.09239059 30.89779449 -0.09957611 31.83381653 -0.10697937 C36.30136153 -0.09088566 39.84812357 0.02516938 43.9050293 2.14526367 C43.9050293 2.47526367 43.9050293 2.80526367 43.9050293 3.14526367 C27.7350293 3.14526367 11.5650293 3.14526367 -5.0949707 3.14526367 C-5.4249707 2.48526367 -5.7549707 1.82526367 -6.0949707 1.14526367 C-3.81431191 0.00493427 -2.53383021 0.01297537 0 0 Z " fill="#343434" transform="translate(237.094970703125,294.854736328125)"/>
<path d="M0 0 C11.88 0.33 23.76 0.66 36 1 C36 1.66 36 2.32 36 3 C31.83741853 3.04969106 27.67499739 3.08585642 23.51220703 3.10986328 C22.09811391 3.11987856 20.68404127 3.13349474 19.27001953 3.15087891 C17.22944054 3.17532559 15.18913697 3.18652784 13.1484375 3.1953125 C11.92302246 3.20578613 10.69760742 3.21625977 9.43505859 3.22705078 C5.96166703 2.99746626 3.23393024 2.2511457 0 1 C0 0.67 0 0.34 0 0 Z " fill="#393939" transform="translate(344,385)"/>
<path d="M0 0 C-1.29299694 2.88437779 -2.65941363 4.87219421 -5 7 C-5.99 6.67 -6.98 6.34 -8 6 C-7.0479279 4.99403703 -6.08812654 3.99538437 -5.125 3 C-4.59132812 2.443125 -4.05765625 1.88625 -3.5078125 1.3125 C-2 0 -2 0 0 0 Z " fill="#19191A" transform="translate(227,299)"/>
<path d="M0 0 C2.39763185 2.39763185 2.34280586 3.33273498 2.625 6.625 C2.69976562 7.44226563 2.77453125 8.25953125 2.8515625 9.1015625 C2.90054687 9.72804687 2.94953125 10.35453125 3 11 C2.34 10.67 1.68 10.34 1 10 C0.5859375 7.71484375 0.5859375 7.71484375 0.375 4.9375 C0.30023438 4.01839844 0.22546875 3.09929687 0.1484375 2.15234375 C0.09945313 1.44207031 0.05046875 0.73179688 0 0 Z " fill="#2E2E2F" transform="translate(402,124)"/>
<path d="M0 0 C0.33 0.66 0.66 1.32 1 2 C0.22265625 3.7265625 0.22265625 3.7265625 -0.9375 5.625 C-1.618125 6.73875 -2.29875 7.8525 -3 9 C-3.66 9 -4.32 9 -5 9 C-3.7508258 5.54074837 -2.32472205 2.85306797 0 0 Z " fill="#242525" transform="translate(298,111)"/>
</svg>
